<svg id="Layer_1" data-name="Layer 1" xmlns="http://www.w3.org/2000/svg" viewBox="0 0 160 49" class="ui__logo--primary">
    <g id="xneelo-logo-icon" class="ui__logo--primary__icon">
        <path d="M6.06594923,0.816976127 C9.2955298,1.63395225 12.9288079,3.23076923 15.7651766,6.5464191 C17.8937638,9.02917772 19,13.9098143 19,16.7692308 C19,17.1830239 18.9737859,18 18.9737859,18 L18.1926049,18 C16.431239,17.8273683 14.6808652,17.554612 12.9497792,17.1830239 C9.14196034,16.2508757 5.73411396,14.0977906 3.2348234,11.0450928 C0.770695364,8.05835544 0,3.03448276 0,0.816976127 L0,0 L0.807395143,0 C2.58170401,0.104702278 4.342327,0.378235065 6.06594923,0.816976127 L6.06594923,0.816976127 Z"
              id="Path-Copy-3"></path>
        <path d="M33.0249418,4.4038947 C30.3644829,4.82293545 26.9431327,6.64046159 24.5700033,9.24053372 C22.776854,11.2196177 22,14.5012622 22,16.4399567 L22,18 L23.6654473,18 C24.5646824,18 25.6980379,17.6213487 26.730296,17.4194014 C30.0050384,16.6863172 32.9536965,14.9942159 35.1586299,12.5827624 C37.9255071,9.43743238 38,4 38,4 C36.3335197,4.01999635 34.6707797,4.15498409 33.0249418,4.4038947 Z"
              id="Path-Copy-4"></path>
        <path d="M8.44444444,33.4347826 C10.9567628,32.8428643 14.3714286,31.3376 16.6482143,28.8 C18.2071429,27.0424 19,24.2188 19,21.8112 L19,21 C17.3422382,21.0509751 15.688271,21.184618 14.0446429,21.4004 C11.5,21.8112 10.0233766,21.9989024 7.40909091,24.6111111 C4.79480519,27.2233198 4.06428571,32.5076 4.03214286,33.2824 C4,33.48 4,33.8232 4,34 L4.53571429,34 C4.68181818,34 6.04545455,34 8.44444444,33.4347826 Z"
              id="Path-Copy-5"></path>
        <path d="M27.841915,29.4375011 C26.0618677,28.7208697 23.9050683,27.835833 23.168383,26.0625074 C22,23.2500126 22,21 22,21 C23.1173482,20.998758 24.2303311,21.1377612 25.3122079,21.4136954 C27.1816605,21.9452086 28.888041,22.9275217 30.2778357,24.2722613 C32.515447,27.4687547 31.9312555,29.1832669 31.9312555,30 C31.920519,30 29.5944895,30 27.841915,29.4375011 Z"
              id="Path-Copy-6"></path>
    </g>
    <g id="xneelo-logo-icon" class="ui__logo--primary__text">
        <path d="M66,30 L66.05271,12.891494 L68.5317383,12.9157706 C68.5317383,12.9157706 68.7516504,13.242175 68.9669067,13.7194093 C69.1821631,14.1966436 69.5401853,14.6599455 69.8814453,14.4809826 C70.2227053,14.3020197 72.0271773,11.830299 75.9175417,12.0092619 C79.8079061,12.1882247 83,14.1965857 83,18.8844182 L83,30 L78.9516602,30 L79.0229492,19.9991624 C79.0229492,16.6655499 76.4950587,15.9988274 74.5,15.9988274 C72.5049413,15.9988274 70.0625,16.8441244 70.0625,20.2344762 L69.9018555,30 L66,30 Z"
              id="Path-Copy-7"></path>
        <path d="M103,21.7747416 L90.0223414,22.6377899 C90.278411,23.8290481 90.9935023,24.8850729 92.0260547,25.5968125 C93.0950556,26.3041114 94.3939127,26.6225163 95.6874793,26.4943827 C97.4072408,26.4121893 98.998431,25.5999531 100.025415,24.2800474 L102.282175,26.6719241 C101.621401,27.6532053 100.704923,28.4536455 99.622607,28.9947568 C96.8994909,30.2812181 93.7162106,30.3355031 90.9467349,29.142708 C89.5243321,28.481471 88.330599,27.4441843 87.5073713,26.1540951 C86.6325798,24.7663074 86.127242,23.1949389 86.0355716,21.5774734 C85.8970227,19.9753886 86.1644941,18.365 86.8153673,16.8824908 C88.0063695,14.0812629 90.7857342,12.1900513 93.9471407,12.0296937 C97.0664039,11.7655324 100.055871,13.2809157 101.574678,15.89615 C102.422918,17.3276626 102.909228,18.9286256 102.994836,20.5714057 C102.994836,20.8278543 103,21.2470492 103,21.7747416 Z M91.3169274,16.5106968 C90.5354376,17.3006111 90.0962342,18.6838799 90.0573033,19.7379705 L98.9950707,19.0684038 C98.9950707,18.0185103 98.1905109,16.8389947 97.3155122,16.1513403 C95.5226592,14.8535217 92.9143198,15.0101631 91.3316298,16.5106968 L91.3169274,16.5106968 Z"
              id="Shape-Copy-2"></path>
        <path d="M123,21.7747416 L110.022341,22.6377899 C110.278411,23.8290481 110.993502,24.8850729 112.026055,25.5968125 C113.095056,26.3041114 114.393913,26.6225163 115.687479,26.4943827 C117.407241,26.4121893 118.998431,25.5999531 120.025415,24.2800474 L122.282175,26.6719241 C121.621401,27.6532053 120.704923,28.4536455 119.622607,28.9947568 C116.899491,30.2812181 113.716211,30.3355031 110.946735,29.142708 C109.524332,28.481471 108.330599,27.4441843 107.507371,26.1540951 C106.63258,24.7663074 106.127242,23.1949389 106.035572,21.5774734 C105.897023,19.9753886 106.164494,18.365 106.815367,16.8824908 C108.00637,14.0812629 110.785734,12.1900513 113.947141,12.0296937 C117.066404,11.7655324 120.055871,13.2809157 121.574678,15.89615 C122.422918,17.3276626 122.909228,18.9286256 122.994836,20.5714057 C122.994836,20.8278543 123,21.2470492 123,21.7747416 Z M111.316927,16.5106968 C110.535438,17.3006111 110.096234,18.6838799 110.057303,19.7379705 L118.995071,19.0684038 C118.995071,18.0185103 118.190511,16.8389947 117.315512,16.1513403 C115.522659,14.8535217 112.91432,15.0101631 111.33163,16.5106968 L111.316927,16.5106968 Z"
              id="Shape-Copy-3"></path>
        <polygon id="Path-Copy-8" points="126 4 130 4 130 30 126 30"></polygon>
        <path d="M134.092394,25.6388957 C133.348117,24.199455 132.973444,22.6001704 133.001582,20.9827916 C132.972404,19.3700162 133.347204,17.7752581 134.092394,16.3414376 C134.784275,15.0197929 135.833181,13.9149883 137.121877,13.1505067 C139.835647,11.6164978 143.164353,11.6164978 145.878123,13.1505067 C147.166819,13.9149883 148.215725,15.0197929 148.907606,16.3414376 C149.652796,17.7752581 150.027596,19.3700162 149.998418,20.9827916 C150.026556,22.6001704 149.651883,24.199455 148.907606,25.6388957 C148.220464,26.9689929 147.170887,28.0813171 145.878123,28.8494933 C143.164353,30.3835022 139.835647,30.3835022 137.121877,28.8494933 C135.829113,28.0813171 134.779536,26.9689929 134.092394,25.6388957 Z M145.952381,20.9999514 C145.952381,20.3636155 145.806905,18.3439011 144.87759,17.181568 C144.031571,16.1533594 142.783642,15.2434779 141.479499,15.2734474 C140.186081,15.2477156 138.950411,16.1578111 138.116033,17.181568 C137.19373,18.3470878 137.047619,20.3636155 137.047619,20.9999514 C137.047619,21.6364345 137.19289,23.6534408 138.116033,24.818482 C138.954802,25.8478915 140.198991,26.758423 141.499284,26.7264555 C142.796552,26.7502386 144.03599,25.8410762 144.87759,24.818482 C145.807751,23.6566361 145.952381,21.6364345 145.952381,20.9999514 Z"
              id="Combined-Shape-Copy"></path>
        <polygon id="Path-Copy-9"
                 points="63 30 58.2017291 30 54.0622478 24.7327319 49.7982709 30 45 30 51.8991354 21.6509727 45 13 49.7982709 13 54.0622478 18.6027629 58.2017291 13 63 13 56.2201729 21.6509727"></polygon>
        <path d="M47.28855,39.3256501 L45.0418,39.3256501 L45.0418,37.6850001 L51.5939499,37.6850001 L51.5939499,39.3256501 L49.3576499,39.3256501 L49.3576499,45 L47.28855,45 L47.28855,39.3256501 Z M54.1629082,40.0153501 C54.3649425,39.7575821 54.6279316,39.5642591 54.9518832,39.4353751 C55.2758348,39.3064911 55.6468061,39.2420501 56.0648082,39.2420501 L56.0648082,41.0290001 C55.8836739,41.0081 55.7338921,40.9976501 55.6154582,40.9976501 C55.1904894,40.9976501 54.8578344,41.1125989 54.6174832,41.3425001 C54.377132,41.5724012 54.2569582,41.9242144 54.2569582,42.39795 L54.2569582,45 L52.2714582,45 L52.2714582,39.3361001 L54.1629082,39.3361001 L54.1629082,40.0153501 Z M62.9705164,39.3361001 L62.9705164,45 L61.0790664,45 L61.0790664,44.3939 C60.8700654,44.6238012 60.6192679,44.7979661 60.3266664,44.9164 C60.034065,45.0348339 59.7240514,45.09405 59.3966165,45.09405 C58.6651128,45.09405 58.0816603,44.8780855 57.6462415,44.44615 C57.2108227,44.0142145 56.9931165,43.366321 56.9931165,42.50245 L56.9931165,39.3361001 L58.9786165,39.3361001 L58.9786165,42.1785001 C58.9786165,42.6034688 59.0587323,42.9134824 59.2189665,43.10855 C59.3792006,43.3036177 59.6125816,43.40115 59.9191165,43.40115 C60.232618,43.40115 60.4886404,43.2914261 60.6871914,43.071975 C60.8857424,42.8525239 60.9850164,42.5163856 60.9850164,42.0635501 L60.9850164,39.3361001 L62.9705164,39.3361001 Z M66.4172747,45.09405 C65.943539,45.09405 65.476777,45.0400589 65.0169747,44.932075 C64.5571724,44.8240911 64.1879428,44.6830175 63.9092747,44.50885 L64.5049247,43.15035 C64.7626927,43.3105842 65.0692229,43.4377246 65.4245247,43.531775 C65.7798265,43.6258255 66.1316396,43.67285 66.4799747,43.67285 C66.800443,43.67285 67.028599,43.6397587 67.1644497,43.573575 C67.3003004,43.5073914 67.3682247,43.4116007 67.3682247,43.2862 C67.3682247,43.1607994 67.2863672,43.0719753 67.1226497,43.019725 C66.9589322,42.9674748 66.6994265,42.9169669 66.3441247,42.8682 C65.8912891,42.8124664 65.5063846,42.7393172 65.1893997,42.64875 C64.8724148,42.5581829 64.5989759,42.3909846 64.3690747,42.1471501 C64.1391736,41.9033155 64.0242247,41.5619523 64.0242247,41.1230501 C64.0242247,40.7607816 64.132207,40.4385765 64.3481747,40.1564251 C64.5641425,39.8742737 64.879381,39.6513426 65.2938997,39.4876251 C65.7084184,39.3239076 66.2047885,39.2420501 66.7830247,39.2420501 C67.1940601,39.2420501 67.601606,39.2838497 68.0056747,39.3674501 C68.4097433,39.4510505 68.7476233,39.5694827 69.0193246,39.7227501 L68.4236747,41.0708001 C67.9220722,40.792132 67.3786776,40.6528001 66.7934747,40.6528001 C66.4799731,40.6528001 66.2500754,40.6893747 66.1037747,40.7625251 C65.957474,40.8356754 65.8843247,40.9314661 65.8843247,41.0499001 C65.8843247,41.1822674 65.9644406,41.2745748 66.1246747,41.3268251 C66.2849088,41.3790753 66.5496395,41.4330665 66.9188747,41.4888001 C67.3856437,41.5584671 67.7722898,41.6385829 68.0788247,41.7291501 C68.3853595,41.8197172 68.6518319,41.9851739 68.8782497,42.225525 C69.1046674,42.4658762 69.2178746,42.8020145 69.2178746,43.23395 C69.2178746,43.5892518 69.1098924,43.9079736 68.8939247,44.190125 C68.6779569,44.4722764 68.3592351,44.6934659 67.9377497,44.8537 C67.5162642,45.0139341 67.0094443,45.09405 66.4172747,45.09405 Z M74.0962829,44.7701 C73.9290821,44.8746005 73.7253091,44.9547164 73.4849579,45.01045 C73.2446067,45.0661836 72.9885843,45.09405 72.7168829,45.09405 C71.9784126,45.09405 71.410635,44.9129185 71.013533,44.55065 C70.616431,44.1883815 70.417883,43.6484703 70.417883,42.9309 L70.417883,41.0290001 L69.592333,41.0290001 L69.592333,39.5451001 L70.417883,39.5451001 L70.417883,38.0716501 L72.4033829,38.0716501 L72.4033829,39.5451001 L73.6991829,39.5451001 L73.6991829,41.0290001 L72.4033829,41.0290001 L72.4033829,42.91 C72.4033829,43.1120344 72.4573741,43.2705245 72.5653579,43.385475 C72.6733418,43.5004256 72.8178987,43.5579 72.9990329,43.5579 C73.2289341,43.5579 73.4309654,43.498684 73.6051329,43.38025 L74.0962829,44.7701 Z M80.5944412,42.1785001 C80.5944412,42.1924335 80.5839913,42.3561485 80.5630912,42.66965 L76.4457912,42.66965 C76.5293917,42.9622515 76.691365,43.1869242 76.9317162,43.343675 C77.1720674,43.5004258 77.4733727,43.5788 77.8356412,43.5788 C78.1073426,43.5788 78.3424652,43.5404837 78.5410162,43.46385 C78.7395672,43.3872163 78.9398568,43.2618176 79.1418912,43.08765 L80.1868912,44.17445 C79.6365218,44.7875197 78.8318798,45.09405 77.7729412,45.09405 C77.1111046,45.09405 76.5293937,44.9686513 76.0277912,44.71785 C75.5261887,44.4670488 75.137801,44.1187189 74.8626163,43.67285 C74.5874316,43.2269811 74.4498413,42.7219029 74.4498413,42.1576001 C74.4498413,41.6002639 74.5839483,41.1004106 74.8521663,40.6580251 C75.1203843,40.2156395 75.4913556,39.8690513 75.9650912,39.6182501 C76.4388269,39.3674488 76.9717716,39.2420501 77.5639412,39.2420501 C78.128244,39.2420501 78.6402889,39.3587406 79.1000912,39.5921251 C79.5598935,39.8255096 79.9238982,40.1633895 80.1921162,40.6057751 C80.4603342,41.0481606 80.5944412,41.572397 80.5944412,42.1785001 Z M77.5743912,40.6528001 C77.2678564,40.6528001 77.0118339,40.7398825 76.8063162,40.9140501 C76.6007985,41.0882176 76.4701748,41.3250819 76.4144412,41.6246501 L78.7343412,41.6246501 C78.6786076,41.3250819 78.5479839,41.0882176 78.3424662,40.9140501 C78.1369485,40.7398825 77.8809261,40.6528001 77.5743912,40.6528001 Z M87.6464494,37.2461001 L87.6464494,45 L85.7549994,45 L85.7549994,44.4357 C85.3857643,44.8746022 84.8319198,45.09405 84.0934495,45.09405 C83.5779136,45.09405 83.1076683,44.9738762 82.6826995,44.733525 C82.2577307,44.4931738 81.9215924,44.1500689 81.6742745,43.7042 C81.4269566,43.2583311 81.3032995,42.742803 81.3032995,42.1576001 C81.3032995,41.5723971 81.4269566,41.0586106 81.6742745,40.6162251 C81.9215924,40.1738395 82.2577307,39.8342179 82.6826995,39.5973501 C83.1076683,39.3604823 83.5779136,39.2420501 84.0934495,39.2420501 C84.7692195,39.2420501 85.2917143,39.4371148 85.6609494,39.8272501 L85.6609494,37.2461001 L87.6464494,37.2461001 Z M84.5114495,43.5161 C84.8528178,43.5161 85.134965,43.3959262 85.3578994,43.155575 C85.5808339,42.9152238 85.6922994,42.5825688 85.6922994,42.1576001 C85.6922994,41.739598 85.5825755,41.4121679 85.3631244,41.1753001 C85.1436733,40.9384322 84.8597845,40.8200001 84.5114495,40.8200001 C84.1631144,40.8200001 83.8774839,40.9384322 83.6545495,41.1753001 C83.431615,41.4121679 83.3201495,41.739598 83.3201495,42.1576001 C83.3201495,42.5825688 83.431615,42.9152238 83.6545495,43.155575 C83.8774839,43.3959262 84.1631144,43.5161 84.5114495,43.5161 Z M92.188716,39.3361001 L94.174216,39.3361001 L94.174216,45 L92.188716,45 L92.188716,39.3361001 Z M93.181466,38.7091001 C92.8191975,38.7091001 92.5266005,38.6080845 92.303666,38.4060501 C92.0807316,38.2040158 91.969266,37.9532183 91.969266,37.6536501 C91.969266,37.354082 92.0807316,37.1032845 92.303666,36.9012501 C92.5266005,36.6992158 92.8191975,36.5982002 93.181466,36.5982002 C93.5437345,36.5982002 93.8363316,36.6939909 94.059266,36.8855751 C94.2822004,37.0771594 94.393666,37.322732 94.393666,37.6223001 C94.393666,37.9358017 94.2822004,38.1953074 94.059266,38.4008251 C93.8363316,38.6063428 93.5437345,38.7091001 93.181466,38.7091001 Z M99.2616243,39.2420501 C99.9652611,39.2420501 100.531297,39.451048 100.959749,39.8690501 C101.388201,40.2870522 101.602424,40.9175292 101.602424,41.7605001 L101.602424,45 L99.6169243,45 L99.6169243,42.0844501 C99.6169243,41.3111462 99.3069107,40.9245001 98.6868743,40.9245001 C98.3455059,40.9245001 98.072067,41.0359656 97.8665493,41.2589001 C97.6610316,41.4818345 97.5582743,41.8162312 97.5582743,42.2621 L97.5582743,45 L95.5727743,45 L95.5727743,39.3361001 L97.4642243,39.3361001 L97.4642243,39.9526501 C97.6871587,39.7227489 97.9518894,39.5468424 98.2584243,39.4249251 C98.5649591,39.3030078 98.8993558,39.2420501 99.2616243,39.2420501 Z M113.167091,37.6850001 L113.167091,45 L111.097991,45 L111.097991,42.1471501 L108.276491,42.1471501 L108.276491,45 L106.207391,45 L106.207391,37.6850001 L108.276491,37.6850001 L108.276491,40.4333501 L111.097991,40.4333501 L111.097991,37.6850001 L113.167091,37.6850001 Z M117.491649,45.09405 C116.885546,45.09405 116.338668,44.9686513 115.850999,44.71785 C115.36333,44.4670488 114.981909,44.1187189 114.706724,43.67285 C114.431539,43.2269811 114.293949,42.7219029 114.293949,42.1576001 C114.293949,41.6002639 114.431539,41.098669 114.706724,40.6528001 C114.981909,40.2069312 115.361588,39.860343 115.845774,39.6130251 C116.32996,39.3657072 116.878579,39.2420501 117.491649,39.2420501 C118.104719,39.2420501 118.65508,39.3657072 119.142749,39.6130251 C119.630418,39.860343 120.010098,40.2051895 120.281799,40.6475751 C120.5535,41.0899606 120.689349,41.5932972 120.689349,42.1576001 C120.689349,42.7219029 120.5535,43.2269811 120.281799,43.67285 C120.010098,44.1187189 119.630418,44.4670488 119.142749,44.71785 C118.65508,44.9686513 118.104719,45.09405 117.491649,45.09405 Z M117.491649,43.5161 C117.839984,43.5161 118.125615,43.3959262 118.348549,43.155575 C118.571483,42.9152238 118.682949,42.5825688 118.682949,42.1576001 C118.682949,41.739598 118.571483,41.4121679 118.348549,41.1753001 C118.125615,40.9384322 117.839984,40.8200001 117.491649,40.8200001 C117.143314,40.8200001 116.857683,40.9384322 116.634749,41.1753001 C116.411815,41.4121679 116.300349,41.739598 116.300349,42.1576001 C116.300349,42.5825688 116.411815,42.9152238 116.634749,43.155575 C116.857683,43.3959262 117.143314,43.5161 117.491649,43.5161 Z M123.780807,45.09405 C123.307072,45.09405 122.84031,45.0400589 122.380507,44.932075 C121.920705,44.8240911 121.551475,44.6830175 121.272807,44.50885 L121.868457,43.15035 C122.126225,43.3105842 122.432756,43.4377246 122.788057,43.531775 C123.143359,43.6258255 123.495172,43.67285 123.843507,43.67285 C124.163976,43.67285 124.392132,43.6397587 124.527982,43.573575 C124.663833,43.5073914 124.731757,43.4116007 124.731757,43.2862 C124.731757,43.1607994 124.6499,43.0719753 124.486182,43.019725 C124.322465,42.9674748 124.062959,42.9169669 123.707657,42.8682 C123.254822,42.8124664 122.869917,42.7393172 122.552932,42.64875 C122.235947,42.5581829 121.962508,42.3909846 121.732607,42.1471501 C121.502706,41.9033155 121.387757,41.5619523 121.387757,41.1230501 C121.387757,40.7607816 121.49574,40.4385765 121.711707,40.1564251 C121.927675,39.8742737 122.242914,39.6513426 122.657432,39.4876251 C123.071951,39.3239076 123.568321,39.2420501 124.146557,39.2420501 C124.557593,39.2420501 124.965139,39.2838497 125.369207,39.3674501 C125.773276,39.4510505 126.111156,39.5694827 126.382857,39.7227501 L125.787207,41.0708001 C125.285605,40.792132 124.74221,40.6528001 124.157007,40.6528001 C123.843506,40.6528001 123.613608,40.6893747 123.467307,40.7625251 C123.321007,40.8356754 123.247857,40.9314661 123.247857,41.0499001 C123.247857,41.1822674 123.327973,41.2745748 123.488207,41.3268251 C123.648441,41.3790753 123.913172,41.4330665 124.282407,41.4888001 C124.749176,41.5584671 125.135822,41.6385829 125.442357,41.7291501 C125.748892,41.8197172 126.015364,41.9851739 126.241782,42.225525 C126.4682,42.4658762 126.581407,42.8020145 126.581407,43.23395 C126.581407,43.5892518 126.473425,43.9079736 126.257457,44.190125 C126.041489,44.4722764 125.722768,44.6934659 125.301282,44.8537 C124.879797,45.0139341 124.372977,45.09405 123.780807,45.09405 Z M131.459815,44.7701 C131.292615,44.8746005 131.088842,44.9547164 130.848491,45.01045 C130.608139,45.0661836 130.352117,45.09405 130.080416,45.09405 C129.341945,45.09405 128.774168,44.9129185 128.377066,44.55065 C127.979964,44.1883815 127.781416,43.6484703 127.781416,42.9309 L127.781416,41.0290001 L126.955866,41.0290001 L126.955866,39.5451001 L127.781416,39.5451001 L127.781416,38.0716501 L129.766916,38.0716501 L129.766916,39.5451001 L131.062716,39.5451001 L131.062716,41.0290001 L129.766916,41.0290001 L129.766916,42.91 C129.766916,43.1120344 129.820907,43.2705245 129.928891,43.385475 C130.036874,43.5004256 130.181431,43.5579 130.362566,43.5579 C130.592467,43.5579 130.794498,43.498684 130.968666,43.38025 L131.459815,44.7701 Z M132.335874,39.3361001 L134.321374,39.3361001 L134.321374,45 L132.335874,45 L132.335874,39.3361001 Z M133.328624,38.7091001 C132.966355,38.7091001 132.673758,38.6080845 132.450824,38.4060501 C132.227889,38.2040158 132.116424,37.9532183 132.116424,37.6536501 C132.116424,37.354082 132.227889,37.1032845 132.450824,36.9012501 C132.673758,36.6992158 132.966355,36.5982002 133.328624,36.5982002 C133.690892,36.5982002 133.983489,36.6939909 134.206424,36.8855751 C134.429358,37.0771594 134.540824,37.322732 134.540824,37.6223001 C134.540824,37.9358017 134.429358,38.1953074 134.206424,38.4008251 C133.983489,38.6063428 133.690892,38.7091001 133.328624,38.7091001 Z M139.408782,39.2420501 C140.112419,39.2420501 140.678455,39.451048 141.106907,39.8690501 C141.535359,40.2870522 141.749582,40.9175292 141.749582,41.7605001 L141.749582,45 L139.764082,45 L139.764082,42.0844501 C139.764082,41.3111462 139.454069,40.9245001 138.834032,40.9245001 C138.492664,40.9245001 138.219225,41.0359656 138.013707,41.2589001 C137.808189,41.4818345 137.705432,41.8162312 137.705432,42.2621 L137.705432,45 L135.719932,45 L135.719932,39.3361001 L137.611382,39.3361001 L137.611382,39.9526501 C137.834317,39.7227489 138.099047,39.5468424 138.405582,39.4249251 C138.712117,39.3030078 139.046514,39.2420501 139.408782,39.2420501 Z M149.28229,39.3361001 L149.28229,43.96545 C149.28229,45.0174219 148.99666,45.806389 148.42539,46.332375 C147.854121,46.8583609 147.032062,47.12135 145.95919,47.12135 C145.401854,47.12135 144.879359,47.0586506 144.39169,46.93325 C143.904021,46.8078493 143.489509,46.6232345 143.14814,46.3794 L143.86919,44.98955 C144.099091,45.1776509 144.389947,45.3256911 144.741765,45.433675 C145.093584,45.5416589 145.440172,45.59565 145.78154,45.59565 C146.304043,45.59565 146.687206,45.4807011 146.93104,45.2508 C147.174875,45.0208989 147.29679,44.6795356 147.29679,44.2267 L147.29679,44.0386 C146.913622,44.4844689 146.352811,44.7074 145.61434,44.7074 C145.112738,44.7074 144.649459,44.5941928 144.22449,44.367775 C143.799522,44.1413572 143.461642,43.8208938 143.21084,43.406375 C142.960039,42.9918563 142.83464,42.5129028 142.83464,41.9695001 C142.83464,41.433064 142.960039,40.9575938 143.21084,40.5430751 C143.461642,40.1285563 143.799522,39.8080929 144.22449,39.5816751 C144.649459,39.3552573 145.112738,39.2420501 145.61434,39.2420501 C146.422478,39.2420501 147.014638,39.5032975 147.39084,40.0258001 L147.39084,39.3361001 L149.28229,39.3361001 Z M146.08459,43.12945 C146.439892,43.12945 146.734231,43.0214678 146.967615,42.8055 C147.201,42.5895323 147.31769,42.3108684 147.31769,41.9695001 C147.31769,41.6281317 147.202741,41.3512095 146.97284,41.1387251 C146.742939,40.9262407 146.446859,40.8200001 146.08459,40.8200001 C145.722322,40.8200001 145.4245,40.9262407 145.191115,41.1387251 C144.957731,41.3512095 144.84104,41.6281317 144.84104,41.9695001 C144.84104,42.3108684 144.959472,42.5895323 145.19634,42.8055 C145.433208,43.0214678 145.729289,43.12945 146.08459,43.12945 Z"
              id="TrustedinHosting"></path>
        <text id="TM-Copy" style="font-family: Helvetica-Bold, Helvetica; font-size: 5.852px; font-weight: bold;">
            <tspan x="152" y="16">TM</tspan>
        </text>
    </g>
</svg>